<svg width="166" height="150" viewBox="0 0 166 150" fill="none" xmlns="http://www.w3.org/2000/svg">
<g clip-path="url(#clip0_983_177955)">
<path d="M65.155 75.5301C65.605 74.9201 66.045 74.3001 66.505 73.6901C73.115 64.6401 79.955 55.7701 87.025 47.0901C89.465 44.1001 91.935 41.1201 94.435 38.1601C98.255 33.6301 102.155 29.1401 106.115 24.7201C109.775 20.6201 113.485 16.5701 117.255 12.5601C119.335 10.3401 121.425 8.15006 123.535 5.96006C123.925 5.55006 124.345 5.14006 124.785 4.74006C127.025 2.70006 128.445 -0.0899436 131.105 1.00006C133.585 2.02006 135.735 5.80006 135.755 8.64006C135.775 9.99006 135.615 11.3601 135.395 12.6201C134.995 14.8601 134.575 17.0901 134.145 19.3201C133.325 23.6401 132.465 27.9501 131.555 32.2401C129.935 39.9401 128.165 47.6001 126.255 55.2301C126.075 56.0001 125.885 56.7701 125.685 57.5401C123.495 66.2301 121.115 74.8701 118.555 83.4601C117.695 86.3701 116.815 89.2801 115.915 92.1901C114.725 96.0101 113.495 99.8101 112.235 103.6L65.145 75.5201L65.155 75.5301Z" fill="#383E4D"/>
<path d="M65.5849 75.79C73.7849 64.57 82.2649 53.57 91.1349 42.88C99.9649 32.24 109.135 21.89 118.625 11.84C120.945 9.37996 123.315 6.96996 125.695 4.56996C127.215 3.03996 128.925 0.289963 131.395 1.70996C133.505 2.92996 134.955 5.65996 135.225 8.01996C135.405 9.57996 135.145 11.21 134.875 12.74C134.575 14.42 134.265 16.09 133.945 17.77C131.345 31.48 128.345 45.1 124.905 58.63C121.485 72.07 117.635 85.42 113.365 98.62C112.835 100.25 112.305 101.88 111.765 103.5L112.495 103.2C110.935 102.27 109.375 101.34 107.805 100.41C104.055 98.17 100.305 95.94 96.5549 93.7C92.0349 91.01 87.5149 88.31 82.9949 85.62C79.0549 83.27 75.1149 80.92 71.1849 78.58L67.3249 76.28C66.7149 75.92 66.1149 75.5 65.4849 75.18C65.4549 75.17 65.4349 75.15 65.4049 75.13C64.8549 74.8 64.3449 75.66 64.9049 75.99C66.4649 76.92 68.0249 77.85 69.5949 78.78C73.3449 81.02 77.0949 83.25 80.8449 85.49C85.3649 88.18 89.8849 90.88 94.4049 93.57C98.3449 95.92 102.285 98.27 106.215 100.61L110.075 102.91C110.685 103.27 111.275 103.69 111.915 104.01C111.945 104.02 111.975 104.04 111.995 104.06C112.285 104.23 112.625 104.06 112.725 103.76C117.205 90.21 121.275 76.53 124.875 62.71C128.485 48.88 131.655 34.94 134.355 20.91C134.995 17.57 135.805 14.19 136.155 10.8C136.305 9.37996 136.325 7.95996 135.935 6.56996C135.585 5.31996 135.005 4.11996 134.235 3.06996C132.945 1.29996 130.755 -0.490037 128.475 0.629963C127.415 1.14996 126.605 2.11996 125.825 2.96996C124.815 4.06996 123.705 5.06996 122.665 6.14996C112.785 16.39 103.255 26.95 94.0749 37.82C84.9249 48.65 76.1349 59.78 67.7249 71.2C66.7249 72.56 65.7149 73.93 64.7249 75.3C64.3449 75.82 65.2149 76.32 65.5849 75.8V75.79Z" fill="#383E4D"/>
<path d="M63.845 74.27C64.515 74.39 65.165 74.6 65.805 74.87C68.185 75.93 70.065 77.98 71.045 80.41C73.575 79.5 77.535 78.89 80.125 79.64C85.675 81.26 88.535 85.55 87.955 89.78C92.555 88.5 95.885 90.96 97.735 92.52C100.965 95.23 103.225 98.68 104.675 102.73C106.695 102.16 108.855 102.05 110.945 102.36C112.205 98.57 113.425 94.77 114.625 90.96C115.525 88.05 116.405 85.14 117.265 82.22C119.825 73.63 122.195 64.99 124.395 56.3C124.595 55.53 124.785 54.76 124.965 53.99C126.875 46.36 128.645 38.7 130.265 31C131.175 26.7 132.035 22.4 132.855 18.08C133.285 15.85 133.705 13.62 134.105 11.38C134.335 10.12 134.485 8.75001 134.465 7.40001C134.435 4.56001 133.645 1.88001 131.165 0.86001C128.495 -0.22999 125.735 1.46001 123.495 3.50001C123.055 3.90001 122.635 4.31001 122.245 4.72001C120.135 6.90001 118.045 9.10001 115.965 11.31C112.195 15.32 108.485 19.37 104.825 23.48C100.865 27.9 96.975 32.39 93.145 36.92C90.645 39.88 88.175 42.85 85.735 45.85C78.665 54.53 71.815 63.41 65.215 72.45C64.755 73.06 64.315 73.68 63.865 74.29L63.845 74.27Z" fill="#DAE9F6"/>
<path d="M64.2748 74.53C72.3248 63.51 80.6548 52.7 89.3548 42.19C98.0348 31.7 107.055 21.48 116.385 11.56C118.705 9.09996 120.975 6.54996 123.425 4.21996C125.375 2.34996 128.375 0.0299565 131.205 1.41996C133.565 2.57996 133.985 5.50996 133.945 7.86996C133.915 9.57996 133.605 11.24 133.295 12.92C132.985 14.6 132.675 16.27 132.355 17.94C129.785 31.41 126.805 44.79 123.405 58.08C120.025 71.28 116.245 84.39 112.045 97.35C111.515 98.9799 110.985 100.61 110.445 102.23C110.245 102.84 111.205 103.1 111.405 102.5C115.805 89.19 119.815 75.74 123.375 62.17C126.935 48.58 130.075 34.88 132.765 21.09C133.425 17.68 134.155 14.27 134.675 10.84C135.075 8.21996 135.245 5.16996 133.925 2.75996C132.605 0.349957 130.035 -0.470043 127.565 0.319957C124.595 1.26996 122.415 3.78996 120.325 5.95996C110.645 16.04 101.295 26.45 92.2748 37.13C83.2548 47.81 74.6148 58.79 66.3248 70.04C65.3448 71.37 64.3648 72.7 63.3948 74.04C63.0148 74.56 63.8848 75.06 64.2548 74.54L64.2748 74.53Z" fill="#383E4D"/>
<path d="M51.8549 136.32C51.2349 136.24 50.5949 136.14 50.0449 135.84C49.4949 135.54 49.0349 134.99 49.0149 134.37C48.9949 133.56 49.6549 132.93 50.1849 132.33C50.9649 131.42 51.5749 130.31 51.6949 129.11C46.6249 124.19 43.7449 117.11 43.5049 110.01C43.2349 101.65 46.5849 93.2399 52.3949 87.2599C51.3249 83.9699 52.0149 80.0799 54.3149 77.4599C56.4349 75.0399 59.8049 73.8299 62.9849 74.1699C63.2649 74.2099 63.5449 74.2399 63.8249 74.2999C64.4949 74.4299 65.1549 74.6299 65.7849 74.8999C68.1749 75.9499 70.0549 78.0099 71.0249 80.4299C73.5649 79.5199 77.5249 78.9099 80.1149 79.6599C85.6549 81.2699 88.5149 85.5599 87.9449 89.7899C92.5349 88.5199 95.8749 90.9699 97.7249 92.5299C100.945 95.2499 103.225 98.6899 104.665 102.75C106.695 102.18 108.845 102.06 110.925 102.38C113.055 102.69 115.105 103.46 116.875 104.67C116.945 104.72 117.025 104.77 117.095 104.83C120.075 106.93 122.145 110.22 122.895 113.78C123.375 116.04 123.055 119.89 128.435 121.2C131.105 120.86 134.975 120.46 137.895 121.93C140.765 123.36 143.145 126.62 146.095 127.88C151.385 130.13 157.625 128.74 162.995 130.76C163.985 131.13 165.095 131.85 164.905 132.97C164.785 133.66 164.205 134.17 163.525 134.31C163.065 134.41 162.725 134.46 162.385 134.47C161.105 134.51 159.805 134.54 158.535 134.73C136.595 138.08 113.105 135.8 90.7449 136.65C85.9349 136.83 81.1149 136.85 76.2949 136.77L51.8349 136.34L51.8549 136.32Z" fill="white"/>
<path d="M51.995 135.84C51.155 135.73 49.865 135.57 49.565 134.6C49.295 133.72 50.375 132.92 50.845 132.32C51.355 131.66 51.775 130.92 52.015 130.12C52.105 129.81 52.285 129.29 52.195 128.97C52.105 128.65 51.665 128.35 51.425 128.1C48.925 125.48 47.005 122.31 45.765 118.91C43.275 112.1 43.525 104.59 46.165 97.86C47.665 94.05 49.925 90.54 52.765 87.59C52.885 87.46 52.945 87.27 52.895 87.1C51.765 83.53 52.705 79.4 55.575 76.9C58.445 74.4 63.035 73.8 66.415 75.72C68.295 76.79 69.755 78.53 70.575 80.53C70.675 80.77 70.915 80.98 71.195 80.88C73.135 80.2 75.215 79.81 77.275 79.79C79.335 79.77 81.225 80.34 82.975 81.37C85.945 83.12 87.925 86.24 87.485 89.75C87.445 90.08 87.835 90.31 88.115 90.23C91.675 89.28 94.875 90.67 97.555 92.97C100.635 95.61 102.845 99.04 104.205 102.84C104.295 103.09 104.545 103.27 104.825 103.19C108.635 102.15 112.845 102.66 116.205 104.77C119.085 106.57 121.195 109.5 122.155 112.75C122.725 114.67 122.635 116.77 123.665 118.54C124.265 119.56 125.175 120.36 126.225 120.89C126.865 121.21 127.675 121.6 128.395 121.66C129.025 121.71 129.745 121.51 130.375 121.46C132.095 121.31 133.855 121.27 135.555 121.62C137.255 121.97 138.665 122.8 139.995 123.88C141.325 124.96 142.505 126.12 143.875 127.1C145.245 128.08 146.795 128.72 148.435 129.11C152.095 129.98 155.895 129.72 159.585 130.34C160.465 130.49 161.335 130.68 162.185 130.95C162.915 131.18 163.865 131.48 164.295 132.17C164.865 133.08 163.885 133.71 163.105 133.85C162.135 134.03 161.115 133.96 160.135 134.03C158.135 134.17 156.155 134.56 154.165 134.79C152.175 135.02 150.105 135.23 148.075 135.39C144.005 135.72 139.935 135.9 135.855 136C127.615 136.2 119.375 136.04 111.135 135.96C107.035 135.92 102.925 135.89 98.825 135.93C94.725 135.97 90.555 136.16 86.425 136.24C82.295 136.32 77.805 136.26 73.485 136.18L61.805 135.97L52.375 135.8H51.875C51.235 135.78 51.235 136.78 51.875 136.79C54.275 136.83 56.665 136.87 59.065 136.92L71.585 137.14C75.075 137.2 78.575 137.28 82.065 137.27C86.355 137.27 90.625 137.08 94.915 136.98C99.205 136.88 103.335 136.88 107.545 136.91C115.985 136.97 124.425 137.16 132.875 137.04C141.325 136.92 149.465 136.5 157.675 135.31C158.775 135.15 159.875 135.01 160.985 134.96C161.895 134.92 162.815 134.96 163.705 134.73C165.125 134.38 165.995 132.79 165.085 131.51C164.175 130.23 162.165 129.81 160.705 129.51C158.865 129.13 156.975 129 155.105 128.88C151.455 128.65 147.545 128.48 144.465 126.27C141.685 124.28 139.515 121.46 136.025 120.67C134.335 120.28 132.575 120.27 130.855 120.39C130.115 120.44 129.295 120.67 128.555 120.63C127.875 120.59 127.055 120.18 126.455 119.85C124.415 118.7 123.895 116.71 123.575 114.55C123.125 111.53 121.785 108.68 119.735 106.41C117.325 103.76 114.035 102.17 110.495 101.74C108.505 101.5 106.495 101.67 104.565 102.19L105.185 102.54C104.045 99.37 102.365 96.42 100.065 93.94C98.235 91.98 95.995 90.13 93.405 89.31C91.595 88.73 89.695 88.74 87.865 89.23L88.495 89.71C88.855 86.89 87.725 84.13 85.715 82.16C83.325 79.82 80.005 78.62 76.695 78.76C74.745 78.85 72.785 79.22 70.945 79.87L71.565 80.22C69.905 76.19 66.135 73.41 61.695 73.54C57.255 73.67 53.535 76.28 52.085 80.35C51.285 82.58 51.255 85.07 51.965 87.33L52.095 86.84C47.805 91.28 44.825 96.96 43.635 103.02C42.445 109.04 43.095 115.31 45.565 120.94C46.955 124.1 48.925 126.99 51.395 129.4L51.245 129.05C51.125 130.05 50.645 130.99 50.005 131.76C49.495 132.38 48.855 132.93 48.635 133.73C48.085 135.69 50.245 136.54 51.765 136.75C52.395 136.84 52.665 135.87 52.035 135.79L51.995 135.84Z" fill="#383E4D"/>
<path d="M29.735 134.91C28.905 135.46 27.875 135.59 26.885 135.7C21.465 136.29 16.005 136.56 10.555 136.83C7.88497 136.96 5.11497 137.08 2.68497 135.97C1.85497 135.59 0.994971 134.9 1.05497 133.99C1.09497 133.4 1.53497 132.9 2.06497 132.62C2.58497 132.36 3.17497 132.27 3.75497 132.19H3.77497C9.28497 132.09 14.795 131.6 20.235 130.72C23.285 130.23 26.565 129.65 29.345 130.98C29.955 131.28 30.555 131.7 30.795 132.33C31.145 133.27 30.575 134.35 29.735 134.89V134.91Z" fill="white"/>
<path d="M29.4848 134.48C28.6248 135.01 27.6348 135.12 26.6448 135.23C25.5748 135.34 24.5048 135.45 23.4348 135.54C21.3348 135.72 19.2348 135.86 17.1248 135.99C15.0148 136.12 12.8348 136.22 10.6848 136.33C8.73481 136.43 6.73481 136.54 4.80481 136.14C3.94481 135.96 3.01481 135.7 2.28481 135.18C1.43481 134.57 1.30481 133.6 2.31481 133.07C3.19481 132.61 4.27481 132.7 5.23481 132.67C6.28481 132.64 7.34481 132.59 8.39481 132.53C12.5148 132.29 16.6148 131.83 20.6848 131.17C22.7848 130.83 24.9748 130.46 27.0948 130.82C28.0548 130.98 29.1948 131.28 29.9248 131.97C30.7648 132.75 30.3248 133.89 29.4848 134.48C28.9548 134.84 29.4548 135.71 29.9848 135.34C31.4548 134.32 31.9548 132.33 30.4348 131.1C28.9148 129.87 26.5148 129.61 24.5548 129.69C22.2848 129.79 20.0548 130.28 17.8148 130.59C15.3348 130.94 12.8348 131.2 10.3348 131.39C9.08481 131.48 7.82481 131.56 6.57481 131.61C5.49481 131.66 4.37481 131.59 3.30481 131.76C2.36481 131.9 1.37481 132.22 0.854814 133.08C0.414814 133.8 0.514814 134.66 1.02481 135.32C2.25481 136.9 4.80481 137.25 6.65481 137.36C9.02481 137.51 11.4248 137.28 13.7948 137.16C16.6448 137.01 19.4948 136.85 22.3348 136.62C23.7348 136.51 25.1348 136.38 26.5348 136.23C27.7348 136.1 28.9548 135.98 30.0048 135.33C30.5548 134.99 30.0548 134.13 29.5048 134.47L29.4848 134.48Z" fill="#383E4D"/>
<path d="M36.4449 149.06C36.3449 149.06 36.2349 149.07 36.1449 149.08C33.4949 149.12 30.8349 148.62 28.3649 147.64C27.9749 147.48 27.5049 147.12 27.6949 146.74C27.7749 146.58 27.9449 146.49 28.1049 146.42C31.7649 144.79 35.9349 144.36 39.8549 145.19C40.8849 145.41 42.0849 145.92 42.2449 146.96C42.3649 147.81 41.6649 148.61 40.8549 148.89C40.0449 149.17 39.1549 149.08 38.3049 148.99C37.4549 148.9 37.4249 148.96 36.4549 149.05L36.4449 149.06Z" fill="white"/>
<path d="M36.4449 148.56C34.4449 148.7 32.3449 148.36 30.4349 147.81C29.9649 147.67 29.4949 147.52 29.0249 147.35C28.7849 147.26 28.5249 147.19 28.3149 147.04C28.0549 146.86 28.2149 146.9 28.4549 146.8C29.3949 146.38 30.3849 146.06 31.3849 145.82C33.3549 145.33 35.4049 145.17 37.4349 145.34C38.4249 145.42 42.0449 145.61 41.7349 147.33C41.5149 148.52 39.9849 148.63 39.0449 148.56C38.1049 148.49 37.3449 148.46 36.4349 148.56C35.8049 148.62 35.7949 149.62 36.4349 149.56C36.8849 149.52 37.3349 149.44 37.7949 149.46C38.3949 149.48 38.9849 149.6 39.5849 149.59C40.6549 149.59 41.7449 149.25 42.3749 148.33C42.9049 147.54 42.8549 146.52 42.2049 145.81C41.5549 145.1 40.4949 144.8 39.5449 144.62C36.9749 144.13 34.3249 144.17 31.7649 144.71C30.4949 144.98 29.2449 145.38 28.0449 145.9C27.6149 146.09 27.1649 146.35 27.1349 146.88C27.1149 147.32 27.4549 147.7 27.7949 147.91C28.3649 148.26 29.0749 148.45 29.7149 148.64C30.4349 148.86 31.1749 149.05 31.9249 149.19C33.3849 149.47 34.9449 149.66 36.4349 149.55C37.0749 149.5 37.0749 148.5 36.4349 148.55L36.4449 148.56Z" fill="#383E4D"/>
<path d="M56.1749 146.06C55.2449 145.57 55.6449 144.87 55.8749 144.74C56.1049 144.61 56.3749 144.6 56.6249 144.59C57.5449 144.54 58.4749 144.5 59.3949 144.55C60.2949 144.6 61.2149 144.76 61.9949 145.23C62.3449 145.44 62.6849 145.82 62.5349 146.19C62.4349 146.44 62.1549 146.55 61.8949 146.63C60.0149 147.2 57.9149 146.99 56.1749 146.06Z" fill="white"/>
<path d="M56.4248 145.63C56.3148 145.57 56.1148 145.43 56.0848 145.35C56.0548 145.27 56.0848 145.25 56.1048 145.21C56.0748 145.32 56.1748 145.06 56.1148 145.19C56.1348 145.17 56.1548 145.15 56.1648 145.14C56.0848 145.19 56.1048 145.2 56.2048 145.14C56.3448 145.13 56.4848 145.09 56.6248 145.09C56.9748 145.07 57.3248 145.05 57.6748 145.04C58.9048 145 60.2948 144.95 61.4348 145.5C61.5648 145.56 62.0848 145.79 62.0648 145.98C62.0548 146.1 61.7348 146.15 61.6548 146.17C61.0748 146.33 60.4848 146.42 59.8848 146.43C58.6848 146.45 57.4948 146.18 56.4248 145.62C55.8548 145.32 55.3448 146.18 55.9248 146.48C57.0948 147.09 58.3948 147.42 59.7148 147.43C60.3648 147.43 61.0148 147.36 61.6448 147.2C62.2048 147.07 62.8948 146.86 63.0448 146.22C63.3548 144.85 61.2848 144.28 60.3148 144.14C59.6148 144.03 58.9148 144.01 58.2048 144.02C57.4948 144.03 56.7348 143.99 56.0448 144.15C55.5748 144.25 55.2148 144.57 55.1148 145.05C54.9848 145.69 55.3948 146.19 55.9248 146.49C56.4848 146.81 56.9948 145.94 56.4248 145.63Z" fill="#383E4D"/>
<path d="M85.365 46.18C94.495 53.76 102.015 63.19 107.435 73.75C108.975 76.75 110.335 79.83 111.525 82.98C111.605 83.19 111.775 83.35 112.005 83.35L111.525 82.98C112.025 84.31 112.495 85.65 112.925 86.99C113.125 87.63 113.325 88.27 113.515 88.91C113.615 89.25 113.715 89.59 113.815 89.93C113.895 90.22 114.115 90.65 114.115 90.95C114.115 91.59 115.115 91.59 115.115 90.95C115.115 90.37 114.785 89.66 114.615 89.1C114.405 88.38 114.185 87.67 113.965 86.95C113.515 85.52 113.015 84.11 112.495 82.71C112.415 82.5 112.245 82.34 112.015 82.34L112.495 82.71C108.295 71.54 101.875 61.24 93.665 52.58C91.275 50.06 88.745 47.69 86.075 45.48C85.585 45.07 84.875 45.78 85.365 46.19V46.18Z" fill="#383E4D"/>
<path d="M125.435 53.84C122.235 44.84 117.385 36.49 111.145 29.26C109.275 27.09 107.275 25.04 105.155 23.1C104.685 22.67 103.975 23.37 104.445 23.81C111.495 30.27 117.255 38.09 121.395 46.71C122.555 49.12 123.575 51.59 124.465 54.11C124.675 54.71 125.645 54.45 125.425 53.84H125.435Z" fill="#383E4D"/>
<path d="M133.325 17.93C131.225 12.4 128.005 7.32996 123.835 3.12996C123.385 2.66996 122.675 3.37996 123.125 3.83996C127.175 7.90996 130.325 12.84 132.365 18.2C132.595 18.8 133.555 18.54 133.325 17.93Z" fill="#383E4D"/>
<path d="M116.295 11.65C116.295 11.65 116.615 11.59 116.655 11.58C116.845 11.52 117.035 11.45 117.225 11.39C117.605 11.27 117.985 11.14 118.365 11.03C119.095 10.8 119.825 10.59 120.555 10.39C122.055 9.97 123.575 9.6 125.105 9.28C128.195 8.63 131.315 8.16 134.455 7.89C135.095 7.84 135.095 6.84 134.455 6.89C131.185 7.17 127.925 7.65 124.715 8.34C123.105 8.68 121.515 9.08 119.935 9.52C119.165 9.74 118.395 9.97 117.635 10.21C117.215 10.34 116.795 10.48 116.385 10.62C116.125 10.71 115.785 10.75 115.585 10.95C115.125 11.41 115.835 12.11 116.295 11.66V11.65Z" fill="#383E4D"/>
<path d="M93.2549 37.38C102.425 34.03 112.065 32.04 121.815 31.54C124.625 31.4 127.435 31.38 130.245 31.48C130.885 31.5 130.885 30.5 130.245 30.48C120.365 30.14 110.455 31.28 100.925 33.88C98.2449 34.61 95.5949 35.46 92.9849 36.41C92.3849 36.63 92.6449 37.6 93.2549 37.37V37.38Z" fill="#383E4D"/>
<path d="M63.0048 73.6499C62.9348 73.6499 62.8748 73.6599 62.8148 73.6899C62.7548 73.7099 62.6948 73.7399 62.6548 73.7899C62.6048 73.8399 62.5748 73.8899 62.5548 73.9499C62.5248 74.0099 62.5048 74.0699 62.5148 74.1399L62.5348 74.2699C62.5548 74.3499 62.6048 74.4299 62.6648 74.4899L62.7648 74.5699C62.8448 74.6199 62.9248 74.6399 63.0148 74.6399C63.0848 74.6399 63.1448 74.6299 63.2048 74.5999C63.2648 74.5799 63.3248 74.5499 63.3648 74.4999C63.4148 74.4499 63.4448 74.3999 63.4648 74.3399C63.4948 74.2799 63.5148 74.2199 63.5048 74.1499L63.4848 74.0199C63.4648 73.9399 63.4148 73.8599 63.3548 73.7999L63.2548 73.7199C63.1748 73.6699 63.0948 73.6499 63.0048 73.6499Z" fill="#383E4D"/>
<path d="M65.4449 72.8699C71.6949 68.2899 78.8549 65.1699 86.2649 63.0299C94.0749 60.7799 102.145 59.4999 110.175 58.4099C114.895 57.7699 119.625 57.2299 124.375 56.7899C125.015 56.7299 125.015 55.7299 124.375 55.7899C116.015 56.5699 107.655 57.6099 99.3849 59.0599C91.4549 60.4499 83.5749 62.3399 76.1749 65.5799C72.2149 67.3199 68.4249 69.4399 64.9349 71.9999C64.4249 72.3799 64.9149 73.2399 65.4349 72.8599L65.4449 72.8699Z" fill="#383E4D"/>
<path d="M117.255 81.7101C109.325 82.4601 101.505 84.1601 93.9949 86.8401C92.9349 87.2201 91.8849 87.6101 90.8449 88.0301C90.3449 88.2301 89.8449 88.4301 89.3449 88.6401C89.0949 88.7501 88.8349 88.8501 88.5849 88.9601C88.4449 89.0201 88.0249 89.2601 87.9649 89.2601C87.3249 89.2601 87.3249 90.2601 87.9649 90.2601C88.2649 90.2601 88.6049 90.0301 88.8749 89.9101C89.4049 89.6801 89.9349 89.4601 90.4649 89.2401C91.3649 88.8801 92.2649 88.5301 93.1649 88.1901C95.0549 87.4901 96.9549 86.8501 98.8849 86.2701C102.665 85.1401 106.515 84.2401 110.405 83.5901C112.675 83.2101 114.955 82.9101 117.245 82.7001C117.885 82.6401 117.885 81.6401 117.245 81.7001L117.255 81.7101Z" fill="#383E4D"/>
<path d="M55.925 108.18C56.9356 108.18 57.755 107.361 57.755 106.35C57.755 105.339 56.9356 104.52 55.925 104.52C54.9143 104.52 54.095 105.339 54.095 106.35C54.095 107.361 54.9143 108.18 55.925 108.18Z" fill="#383E4D"/>
<path d="M73.3949 107.5C74.4056 107.5 75.2249 106.681 75.2249 105.67C75.2249 104.659 74.4056 103.84 73.3949 103.84C72.3843 103.84 71.5649 104.659 71.5649 105.67C71.5649 106.681 72.3843 107.5 73.3949 107.5Z" fill="#383E4D"/>
<path d="M58.1733 80.3032L58.1679 80.3117C57.782 80.9171 57.9601 81.7208 58.5655 82.1066L62.3604 84.5251C62.9658 84.911 63.7695 84.733 64.1553 84.1275L64.1607 84.1191C64.5466 83.5136 64.3686 82.71 63.7631 82.3241L59.9683 79.9056C59.3628 79.5198 58.5592 79.6978 58.1733 80.3032Z" fill="#66BCFF" stroke="#383E4D" stroke-miterlimit="10"/>
<path d="M86.4412 99.943L86.4467 99.9514C86.8439 100.55 87.6507 100.713 88.2488 100.315L91.9978 97.8264C92.596 97.4293 92.759 96.6225 92.3619 96.0244L92.3563 96.016C91.9592 95.4179 91.1524 95.2549 90.5542 95.652L86.8052 98.141C86.2071 98.5381 86.0441 99.3449 86.4412 99.943Z" fill="#66BCFF" stroke="#383E4D" stroke-miterlimit="10"/>
<path d="M112.718 114.185L112.708 114.185C111.993 114.241 111.457 114.866 111.513 115.582L111.86 120.069C111.916 120.784 112.541 121.32 113.257 121.264L113.267 121.263C113.983 121.208 114.518 120.583 114.463 119.867L114.115 115.38C114.06 114.665 113.434 114.129 112.718 114.185Z" fill="#66BCFF" stroke="#383E4D" stroke-miterlimit="10"/>
<path d="M129.777 126.376L129.77 126.383C129.283 126.91 129.315 127.733 129.842 128.22L133.146 131.275C133.673 131.763 134.496 131.731 134.983 131.204L134.99 131.196C135.477 130.669 135.445 129.847 134.918 129.359L131.614 126.304C131.087 125.817 130.265 125.849 129.777 126.376Z" fill="#66BCFF" stroke="#383E4D" stroke-miterlimit="10"/>
<path d="M54.885 115.48L55.855 116.37C56.995 117.42 58.775 117.35 59.835 116.21L60.275 115.74C61.325 114.6 63.105 114.53 64.255 115.58L64.525 115.83C65.665 116.88 67.445 116.81 68.505 115.67L68.945 115.2C69.995 114.06 71.775 113.99 72.925 115.04L74.065 116.09" stroke="#383E4D" stroke-linecap="round" stroke-linejoin="round"/>
</g>
<defs>
<clipPath id="clip0_983_177955">
<rect width="164.89" height="149.59" fill="white" transform="translate(0.554932)"/>
</clipPath>
</defs>
</svg>
